<mxfile host="app.diagrams.net" modified="2022-11-29T01:53:42.768Z" agent="5.0 (Macintosh; Intel Mac OS X 10_15_7) AppleWebKit/537.36 (KHTML, like Gecko) Chrome/107.0.0.0 Safari/537.36" etag="mW6XjxOUobJWgdq1VWZ1" version="20.0.0" type="github">
  <diagram id="XW3rvj_nJLBIqUon4FIv" name="Page-1">
    <mxGraphModel dx="946" dy="517" grid="1" gridSize="10" guides="1" tooltips="1" connect="1" arrows="1" fold="1" page="1" pageScale="1" pageWidth="827" pageHeight="1169" math="0" shadow="0">
      <root>
        <mxCell id="0" />
        <mxCell id="1" parent="0" />
        <mxCell id="9xRIgH0n2pkJFgbEcYJm-1" value="" style="rounded=0;whiteSpace=wrap;html=1;" vertex="1" parent="1">
          <mxGeometry x="210" y="130" width="200" height="180" as="geometry" />
        </mxCell>
        <mxCell id="9xRIgH0n2pkJFgbEcYJm-2" value="web" style="rounded=1;whiteSpace=wrap;html=1;" vertex="1" parent="1">
          <mxGeometry x="260" y="140" width="90" height="40" as="geometry" />
        </mxCell>
        <mxCell id="9xRIgH0n2pkJFgbEcYJm-3" value="controller" style="rounded=1;whiteSpace=wrap;html=1;" vertex="1" parent="1">
          <mxGeometry x="260" y="200" width="90" height="40" as="geometry" />
        </mxCell>
        <mxCell id="9xRIgH0n2pkJFgbEcYJm-4" value="services" style="rounded=1;whiteSpace=wrap;html=1;" vertex="1" parent="1">
          <mxGeometry x="260" y="260" width="90" height="40" as="geometry" />
        </mxCell>
        <mxCell id="9xRIgH0n2pkJFgbEcYJm-5" value="war" style="text;html=1;strokeColor=none;fillColor=none;align=center;verticalAlign=middle;whiteSpace=wrap;rounded=0;" vertex="1" parent="1">
          <mxGeometry x="200" y="130" width="60" height="30" as="geometry" />
        </mxCell>
        <mxCell id="9xRIgH0n2pkJFgbEcYJm-6" value="" style="shape=flexArrow;endArrow=classic;html=1;rounded=0;" edge="1" parent="1">
          <mxGeometry width="50" height="50" relative="1" as="geometry">
            <mxPoint x="410" y="219.5" as="sourcePoint" />
            <mxPoint x="500" y="219.5" as="targetPoint" />
          </mxGeometry>
        </mxCell>
        <mxCell id="9xRIgH0n2pkJFgbEcYJm-7" value="部署" style="text;html=1;strokeColor=none;fillColor=none;align=center;verticalAlign=middle;whiteSpace=wrap;rounded=0;" vertex="1" parent="1">
          <mxGeometry x="414" y="190" width="60" height="30" as="geometry" />
        </mxCell>
        <mxCell id="9xRIgH0n2pkJFgbEcYJm-8" value="Tomcat" style="rounded=0;whiteSpace=wrap;html=1;" vertex="1" parent="1">
          <mxGeometry x="500" y="190" width="120" height="60" as="geometry" />
        </mxCell>
      </root>
    </mxGraphModel>
  </diagram>
</mxfile>
